<svg width="48" height="48" viewBox="0 0 48 48" fill="none" xmlns="http://www.w3.org/2000/svg">
<circle cx="24" cy="24" r="24" fill="#CEF0E0"/>
<path d="M32.1928 27.2865C32.1361 27.4235 32.04 27.5407 31.9167 27.6231C31.7933 27.7056 31.6483 27.7496 31.5 27.7496H16.5C16.3516 27.7497 16.2065 27.7058 16.083 27.6234C15.9596 27.541 15.8634 27.4238 15.8065 27.2867C15.7497 27.1496 15.7349 26.9987 15.7639 26.8531C15.7929 26.7076 15.8644 26.5739 15.9694 26.469L23.4694 18.969C23.539 18.8993 23.6218 18.8439 23.7128 18.8062C23.8039 18.7685 23.9015 18.749 24 18.749C24.0986 18.749 24.1962 18.7685 24.2872 18.8062C24.3783 18.8439 24.461 18.8993 24.5306 18.969L32.0306 26.469C32.1355 26.5739 32.2069 26.7076 32.2357 26.8531C32.2646 26.9987 32.2497 27.1495 32.1928 27.2865Z" fill="#0AB566"/>
</svg>
