<svg width="48" height="48" viewBox="0 0 48 48" fill="none" xmlns="http://www.w3.org/2000/svg">
<circle cx="24" cy="24" r="24" fill="#FFCCCC"/>
<path d="M32.0306 21.5306L24.5306 29.0306C24.461 29.1004 24.3783 29.1557 24.2872 29.1934C24.1962 29.2312 24.0986 29.2506 24 29.2506C23.9015 29.2506 23.8039 29.2312 23.7128 29.1934C23.6218 29.1557 23.539 29.1004 23.4694 29.0306L15.9694 21.5306C15.8644 21.4257 15.7929 21.292 15.7639 21.1465C15.7349 21.0009 15.7497 20.85 15.8065 20.7129C15.8634 20.5758 15.9596 20.4586 16.083 20.3762C16.2065 20.2938 16.3516 20.2499 16.5 20.25H31.5C31.6484 20.2499 31.7936 20.2938 31.917 20.3762C32.0404 20.4586 32.1367 20.5758 32.1935 20.7129C32.2503 20.85 32.2651 21.0009 32.2362 21.1465C32.2072 21.292 32.1356 21.4257 32.0306 21.5306Z" fill="#FF0B0B"/>
</svg>
