<svg width="48" height="48" viewBox="0 0 48 48" fill="none" xmlns="http://www.w3.org/2000/svg">
<g clip-path="url(#clip0_728_2076)">
<path d="M48 10.5643V37.4325C48 39.3457 47.4913 41.1438 46.5923 42.6955C46.4419 42.9642 46.2723 43.2298 46.0932 43.4889C45.9556 43.6873 45.8116 43.8792 45.6613 44.0648C45.3157 44.4903 44.9382 44.887 44.5351 45.2549C42.6603 46.9602 40.168 48 37.4357 48H10.5675C4.73185 48 0 43.2681 0 37.4325V10.5643C0 4.72865 4.73185 0 10.5675 0H37.4357C43.2713 0 48 4.72865 48 10.5643Z" fill="#0AB566"/>
<path d="M45.6612 44.0645C45.3156 44.4901 44.9381 44.8868 44.535 45.2547C42.6602 46.96 40.1679 47.9998 37.4356 47.9998H17.1485L11.9431 35.5734V21.4707L24.1039 10.1865L39.6112 22.6896L45.6612 44.0645Z" fill="#2D9E65"/>
<path d="M24.1039 28.0516C25.5846 28.0516 26.785 26.8512 26.785 25.3705C26.785 23.8898 25.5846 22.6895 24.1039 22.6895C22.6232 22.6895 21.4229 23.8898 21.4229 25.3705C21.4229 26.8512 22.6232 28.0516 24.1039 28.0516Z" fill="white"/>
<path d="M39.2241 21.8002L26.1899 8.766C24.9134 7.48946 22.8434 7.48946 21.5668 8.766L8.52623 21.8098C7.7072 22.6288 8.28628 24.027 9.44445 24.027H11.7672V29.2547L11.7736 34.3481C11.7768 36.8628 13.818 38.9008 16.3327 38.9008H20.5942C22.4626 37.1091 25.4924 37.0739 27.3993 38.9008H31.3569C33.8812 38.9008 35.9256 36.8564 35.9256 34.3321V29.3219L35.9384 29.3091V24.027H38.3059C39.4672 24.027 40.0495 22.6224 39.2273 21.8034L39.2241 21.8002ZM28.6534 37.845C27.3545 36.5908 25.8092 35.919 23.9951 35.919C22.1811 35.919 20.6326 36.5908 19.3369 37.8418C18.9657 37.4707 18.5978 37.1027 18.2299 36.7348C20.9909 33.785 26.3563 33.2891 29.7668 36.7316C29.3925 37.1059 29.0245 37.4707 28.6534 37.845ZM30.9154 35.5734C28.9893 33.721 26.6986 32.7228 23.9983 32.7196C21.2981 32.7196 19.0041 33.7146 17.0685 35.5702C16.6974 35.1991 16.3263 34.828 15.9455 34.4505C18.1915 32.2845 20.8662 31.1295 23.9919 31.1295C27.1209 31.1295 29.7924 32.2877 32.0351 34.4537C31.6576 34.828 31.2865 35.2023 30.9122 35.5734H30.9154ZM32.1535 32.4797C29.8276 30.5153 27.1113 29.4723 23.9887 29.4723C20.9717 29.4723 18.3355 30.4417 16.0607 32.2749L16.0447 24.1805C16.0447 23.7614 16.2047 23.3551 16.4926 23.0511L23.2017 15.9294C23.7264 15.3727 24.6126 15.3759 25.1341 15.939L31.7248 23.0575C32.0031 23.3583 32.1567 23.7518 32.1567 24.1613V32.4765L32.1535 32.4797Z" fill="white"/>
<path d="M16.2 23.9996V32.3996C16.2 31.7996 20.4 29.3996 24.6 29.3996C27.96 29.3996 30.8 31.3996 31.8 32.3996V23.9996C31.8 23.5196 31.4 22.9996 31.2 22.7996C29.4 20.7996 25.68 16.6796 25.2 16.1996C24.6 15.5996 24.6 15.5996 24 15.5996C23.52 15.5996 22.6 16.3996 22.2 16.7996C20.6 18.5996 17.28 22.3196 16.8 22.7996C16.32 23.2796 16.2 23.7996 16.2 23.9996Z" stroke="black" stroke-width="0.1"/>
<circle cx="24.0001" cy="25.1998" r="2.4" fill="#D9D9D9"/>
</g>
<defs>
<clipPath id="clip0_728_2076">
<rect width="48" height="48" fill="white"/>
</clipPath>
</defs>
</svg>
