<svg width="303" height="56" viewBox="0 0 303 56" fill="none" xmlns="http://www.w3.org/2000/svg">
<path d="M0.92793 54V1.5H12.3279V22.275H34.8279V1.5H46.2279V54H34.8279V31.725H12.3279V54H0.92793ZM55.7125 27.9C55.7125 19.9 58.2625 13.3 63.3625 8.1C68.5125 2.9 75.3125 0.299998 83.7625 0.299998C92.2125 0.299998 98.9875 2.9 104.088 8.1C109.238 13.3 111.813 19.9 111.813 27.9C111.913 35.85 109.388 42.4 104.238 47.55C99.0875 52.7 92.2625 55.25 83.7625 55.2C75.2625 55.25 68.4375 52.7 63.2875 47.55C58.1375 42.4 55.6125 35.85 55.7125 27.9ZM99.8875 27.825C99.8875 22.475 98.4375 18.125 95.5375 14.775C92.6375 11.425 88.7375 9.75 83.8375 9.75C78.8375 9.75 74.8875 11.425 71.9875 14.775C69.0875 18.125 67.6375 22.475 67.6375 27.825C67.6375 33.125 69.0875 37.45 71.9875 40.8C74.8875 44.1 78.8375 45.75 83.8375 45.75C88.7375 45.75 92.6375 44.1 95.5375 40.8C98.4375 37.45 99.8875 33.125 99.8875 27.825ZM121.265 54V1.5H139.94L148.565 27.075C149.715 30.675 150.34 36.425 150.44 44.325H154.49C154.59 36.475 155.265 30.725 156.515 27.075L165.29 1.5H183.29V54H171.89V33.15C171.89 25.75 173.715 17.775 177.365 9.225L173.165 7.575L157.265 54H147.14L131.465 7.575L127.265 9.225C130.865 17.675 132.665 25.65 132.665 33.15V54H121.265ZM195.899 54V1.5H207.299V54H195.899ZM219.922 54V1.5H260.272V10.95H231.322V24.6H254.497V34.05H231.322V54H219.922ZM268.408 54V1.5H279.808V54H268.408ZM290.557 54V42.15H302.932V54H290.557Z" fill="#0AB566"/>
</svg>
