<svg width="32" height="33" viewBox="0 0 32 33" fill="none" xmlns="http://www.w3.org/2000/svg">
<g clip-path="url(#clip0_1227_700)">
<path d="M31.7899 7.84472V25.5212C31.7899 26.7799 31.4552 27.9628 30.8638 28.9837C30.7648 29.1605 30.6533 29.3352 30.5354 29.5057C30.4449 29.6362 30.3502 29.7624 30.2512 29.8845C30.0239 30.1645 29.7756 30.4255 29.5103 30.6675C28.2769 31.7894 26.6372 32.4735 24.8397 32.4735H7.16323C3.324 32.4735 0.210938 29.3604 0.210938 25.5212V7.84472C0.210938 4.00549 3.324 0.894531 7.16323 0.894531H24.8397C28.6789 0.894531 31.7899 4.00549 31.7899 7.84472Z" fill="#0AB566"/>
<path d="M30.2513 29.8849C30.024 30.1648 29.7756 30.4258 29.5104 30.6679C28.2769 31.7897 26.6373 32.4738 24.8397 32.4738H11.4929L8.06836 24.2986V15.0205L16.0689 7.59668L26.271 15.8224L30.2513 29.8849Z" fill="#2D9E65"/>
<path d="M16.0685 19.348C17.0427 19.348 17.8324 18.5583 17.8324 17.5842C17.8324 16.61 17.0427 15.8203 16.0685 15.8203C15.0944 15.8203 14.3047 16.61 14.3047 17.5842C14.3047 18.5583 15.0944 19.348 16.0685 19.348Z" fill="white"/>
<path d="M26.0157 15.2363L17.4406 6.66112C16.6008 5.82129 15.239 5.82129 14.3991 6.66112L5.81979 15.2426C5.28095 15.7814 5.66192 16.7012 6.42388 16.7012H7.95199V20.1405L7.9562 23.4914C7.95831 25.1458 9.3012 26.4866 10.9556 26.4866H13.7593C14.9885 25.3079 16.9818 25.2848 18.2363 26.4866H20.8399C22.5007 26.4866 23.8457 25.1416 23.8457 23.4809V20.1847L23.8541 20.1763V16.7012H25.4117C26.1757 16.7012 26.5588 15.7772 26.0179 15.2384L26.0157 15.2363ZM19.0613 25.792C18.2068 24.9669 17.1901 24.5249 15.9967 24.5249C14.8033 24.5249 13.7845 24.9669 12.932 25.7899C12.6879 25.5458 12.4458 25.3037 12.2038 25.0617C14.0203 23.121 17.5501 22.7947 19.7938 25.0596C19.5476 25.3058 19.3055 25.5458 19.0613 25.792ZM20.5495 24.2976C19.2824 23.0789 17.7753 22.4222 15.9988 22.4201C14.2223 22.4201 12.7131 23.0747 11.4397 24.2955C11.1956 24.0513 10.9514 23.8072 10.7009 23.5588C12.1785 22.1338 13.9382 21.374 15.9946 21.374C18.0531 21.374 19.8107 22.1359 21.2862 23.5609C21.0378 23.8072 20.7936 24.0534 20.5474 24.2976H20.5495ZM21.364 22.2622C19.8338 20.9698 18.0468 20.2837 15.9925 20.2837C14.0076 20.2837 12.2732 20.9214 10.7767 22.1275L10.7662 16.8023C10.7662 16.5265 10.8714 16.2592 11.0608 16.0592L15.4747 11.3739C15.8199 11.0076 16.4029 11.0097 16.746 11.3802L21.082 16.0635C21.2651 16.2613 21.3662 16.5202 21.3662 16.7896V22.2601L21.364 22.2622Z" fill="white"/>
<path d="M10.8682 16.6845V22.2108C10.8682 21.8161 13.6313 20.2372 16.3945 20.2372C18.605 20.2372 20.4734 21.5529 21.1313 22.2108V16.6845C21.1313 16.3687 20.8682 16.0266 20.7366 15.895C19.5524 14.5793 17.105 11.8687 16.7892 11.5529C16.3945 11.1582 16.3945 11.1582 15.9997 11.1582C15.684 11.1582 15.0787 11.6845 14.8155 11.9477C13.7629 13.1319 11.5787 15.5793 11.2629 15.895C10.9471 16.2108 10.8682 16.5529 10.8682 16.6845Z" stroke="black" stroke-width="0.0789474"/>
<circle cx="15.9998" cy="17.4735" r="1.57895" fill="#D9D9D9"/>
</g>
<defs>
<clipPath id="clip0_1227_700">
<rect width="31.5789" height="31.5789" fill="white" transform="translate(0.210938 0.894531)"/>
</clipPath>
</defs>
</svg>
